# xmcd
#
# Track frame offsets:
#	150
#	5697
#	24017
#	40900
#	56910
#	73957
#	96536
#	118443
#	140994
#	158604
#
# Disc length: 2320 seconds
#
# Revision: 1
# Processed by: cddbd v1.5.2PL0 Copyright (c) Steve Scherf et al.
# Submitted via: EasyCDDAExtractor 2010.6.0.0
#
DISCID=95090e0a
DTITLE=HKI Crates
DYEAR=2012
DGENRE=hip-Hop
TTITLE0=Xmies and Staffro rockin it
TTITLE1=Kyll‰ s‰ tied‰t sen (f. SP and Kalle Kinos)
TTITLE2=Nilkitt‰j‰t (f. Haamu, Rekami and Are)
TTITLE3=Something special (f. Gracias)
TTITLE4=Diggaa (f. V‰iski)
TTITLE5=En sua n‰‰ (f. Super Janne)
TTITLE6=Lelu (f. Kemmuru and Puppa J)
TTITLE7=Kotipihan kuuluisuus (f. Brandon and Tuomo)
TTITLE8=Spessujopo (f. Solonen and Kosola)
TTITLE9=Mulla on liikaa (f. Juno, Pyhimys and Janna)
EXTD=
EXTT0=
EXTT1=
EXTT2=
EXTT3=
EXTT4=
EXTT5=
EXTT6=
EXTT7=
EXTT8=
EXTT9=
PLAYORDER=
